<svg xmlns="http://www.w3.org/2000/svg" viewBox="0 0 52.81 52.81"><defs><style>.cls-1{fill:none;stroke:#fee58e;stroke-linecap:round;stroke-linejoin:round;stroke-width:2.5px;}.cls-2{fill:#181c21;}</style></defs><title>founder</title><g id="Layer_1" data-name="Layer 1"><circle class="cls-1" cx="26.4" cy="26.4" r="25.15"/><circle class="cls-2" cx="40.64" cy="26.24" r="0.89"/><path class="cls-2" d="M39.07,22.53a1,1,0,1,0,1-1A1,1,0,0,0,39.07,22.53Z"/><path class="cls-2" d="M38.24,20.09a1.15,1.15,0,1,0-1.15-1.15A1.16,1.16,0,0,0,38.24,20.09Z"/><path class="cls-2" d="M40.49,29h0a.91.91,0,0,0-1.14.59A10.7,10.7,0,0,1,36.7,34a11.54,11.54,0,0,1-1.47,1.23,10.63,10.63,0,0,1-6.11,1.92,10.91,10.91,0,0,1-2.7-.34,10.7,10.7,0,0,1-8-10.34V26.4a10.66,10.66,0,0,1,1.92-6,10.26,10.26,0,0,1,1.24-1.47,10.64,10.64,0,0,1,4.82-2.79,10.42,10.42,0,0,1,2.75-.36A10.67,10.67,0,0,1,34.23,17a1.57,1.57,0,0,0,1.86-.26h0a1.42,1.42,0,0,0-.1-2.09,15.15,15.15,0,1,0,1.15,22.47h0a15.09,15.09,0,0,0,4-7A1,1,0,0,0,40.49,29Z"/></g></svg>